Coordinates
version=1
nRows=4
nColumns=107
inDegrees=yes

Units are S.I. units (second, meters, Newtons, ...)
If the header above contains a line with 'inDegrees', this indicates whether rotational values are in degrees (yes) or radians (no).

endheader
time	sternoclavicular_r2	sternoclavicular_r3	unrotscap_r3	unrotscap_r2	acromioclavicular_r2	acromioclavicular_r3	acromioclavicular_r1	unrothum_r1	unrothum_r3	unrothum_r2	elv_angle	shoulder_elv	shoulder1_r2	shoulder_rot	elbow_flexion	pro_sup	deviation	flexion	proximal_distal_r1	proximal_distal_r3	cmc_flexion	cmc_abduction	mp_flexion	ip_flexion	mcp2_flexion	mcp2_abduction	pm2_flexion	md2_flexion	mcp3_flexion	mcp3_abduction	pm3_flexion	md3_flexion	mcp4_flexion	mcp4_abduction	pm4_flexion	md4_flexion	mcp5_flexion	mcp5_abduction	pm5_flexion	md5_flexion	bicpt_tx	bicpt_ty	bicpt_tz	bicpt2_tx	bicpt2_ty	bicpt2_tz	ptpt_tx	ptpt_ty	ptpt_tz	FCUpt_tx	FCUpt_ty	FCUpt_tz	EDCpt_tx	EDCpt_ty	EDCpt_tz	APLpt_tx	APLpt_ty	APLpt_tz	FPLpt_tx	FPLpt_ty	FPLpt_tz	FPLpt2_tx	FPLpt2_ty	FPLpt2_tz	PEC1pt2_tx	PEC1pt2_ty	PEC1pt2_tz	PEC1pt3_tx	PEC1pt3_ty	PEC1pt3_tz	PEC2pt2_tx	PEC2pt2_ty	PEC2pt2_tz	PEC2pt3_tx	PEC2pt3_ty	PEC2pt3_tz	PEC3pt2_tx	PEC3pt2_ty	PEC3pt2_tz	PEC3pt3_tx	PEC3pt3_ty	PEC3pt3_tz	DELT2pt2a_tx	DELT2pt2a_ty	DELT2pt2a_tz	DELT2pt2_tx	DELT2pt2_ty	DELT2pt2_tz	LAT1pt2_tx	LAT1pt2_ty	LAT1pt2_tz	LAT1pt3_tx	LAT1pt3_ty	LAT1pt3_tz	LAT2pt2_tx	LAT2pt2_ty	LAT2pt2_tz	LAT2pt3_tx	LAT2pt3_ty	LAT2pt3_tz	LAT3pt2_tx	LAT3pt2_ty	LAT3pt2_tz	LAT3pt3_tx	LAT3pt3_ty	LAT3pt3_tz
      1.03333333	     -0.32259711	      0.13663691	     -0.13663691	      0.32259711	     -0.06531935	      0.52788803	      0.23728204	     -0.23728204	     -0.52788803	      0.06531935	     99.26574731	     76.37773269	     -1.73251413	    -24.03747811	     29.80787986	     47.99935368	      0.25345435	      0.17114389	      0.29139342	      0.08557195	     29.71246286	    -17.56765604	      5.82994424	     -6.37840467	     -3.60224298	     13.39472486	     13.72472167	    -19.00416864	    -14.73614886	      4.68023176	     12.90364583	     14.54806921	    -20.28572251	     -4.01509000	      9.04638056	     22.99441615	    -13.48950329	    -14.40654636	     -8.75153313	      5.04714976	      0.00088595	     -0.03101644	     -0.00485030	      0.01651617	     -0.01829746	     -0.00657123	      0.00400339	     -0.06719330	     -0.00391661	      0.00859548	     -0.18331957	     -0.00041911	     -0.00575991	      0.00171552	      0.00007166	     -0.00019963	     -0.00007985	     -0.00039925	     -0.00025552	     -0.00076656	     -0.00043119	     -0.00000815	     -0.00025236	     -0.00030283	      0.00250349	      0.00878345	      0.00611022	     -0.00818940	      0.01977336	     -0.01875499	      0.00250349	      0.00878345	      0.00611022	      0.00055162	      0.01833067	     -0.00963209	      0.00395591	      0.00488436	      0.01598709	      0.00000000	      0.00780189	      0.00000000	     -0.00717103	     -0.03313948	     -0.00643314	      0.01599708	     -0.00055906	     -0.00482453	     -0.00089107	      0.01493610	     -0.00611022	      0.00246106	      0.02155551	     -0.01782149	     -0.00598293	      0.01294179	     -0.00547374	     -0.01247504	      0.02732628	     -0.03059355	     -0.02342252	      0.01446935	     -0.00734075	     -0.01553015	      0.03156949	     -0.03823133
      1.06666667	     -0.32051596	      0.13575543	     -0.13575543	      0.32051596	     -0.06489796	      0.52448250	      0.23575127	     -0.23575127	     -0.52448250	      0.06489796	     99.71939460	     75.88500180	     -1.74043176	    -26.78226073	     30.39587308	     53.43457031	      0.27039938	      0.26587408	      0.30712454	      0.13293704	     31.73529855	    -18.70429503	      3.89387247	     -3.80442288	     -5.43408396	     13.41991007	     13.15335664	    -15.96074000	    -15.48502490	      4.58085397	     13.47686716	     12.64697518	    -19.76536811	     -3.87427072	      9.68483139	     18.40522033	    -10.77570295	    -14.39459148	    -11.02779771	      5.08840027	      0.00090540	     -0.03108383	     -0.00486115	      0.01639305	     -0.01845719	     -0.00590934	      0.00360179	     -0.06745298	     -0.00435444	      0.00916067	     -0.18318997	     -0.00041383	     -0.00641213	      0.00195460	      0.00000106	     -0.00033122	     -0.00013249	     -0.00066244	     -0.00042396	     -0.00127189	     -0.00071544	     -0.00001061	     -0.00023387	     -0.00028065	      0.00248734	      0.00872678	      0.00607081	     -0.00813657	      0.01964580	     -0.01863400	      0.00248734	      0.00872678	      0.00607081	      0.00054806	      0.01821242	     -0.00956995	      0.00393725	      0.00485285	      0.01594145	      0.00000000	      0.00770085	      0.00000000	     -0.00712476	     -0.03292569	     -0.00634926	      0.01738236	     -0.00064881	     -0.00599699	     -0.00088533	      0.01483975	     -0.00607081	      0.00244519	      0.02141645	     -0.01770652	     -0.00594433	      0.01285830	     -0.00543843	     -0.01239456	      0.02714999	     -0.03039618	     -0.02327142	      0.01437600	     -0.00729340	     -0.01542996	      0.03136583	     -0.03798469
      1.10000000	     -0.31514957	      0.13348248	     -0.13348248	      0.31514957	     -0.06381138	      0.51570111	      0.23180410	     -0.23180410	     -0.51570111	      0.06381138	    101.17550224	     74.61446256	     -1.76584564	    -33.69292663	     30.93569163	     61.19395475	      0.23517842	      0.25868012	      0.27389954	      0.12934006	     32.77518190	    -19.65866860	      4.58051160	     -4.02438556	     -6.69051836	     13.52462258	     13.19312311	    -14.03439281	    -15.60501819	      4.72149898	     13.33847432	     13.14957649	    -19.18704230	     -3.67123980	      9.22371300	     19.62290344	     -9.40165175	    -14.39278138	    -10.46202711	      5.04825633	      0.00092326	     -0.03114570	     -0.00487112	      0.01610023	     -0.01860383	     -0.00489267	      0.00302846	     -0.06782370	     -0.00497950	      0.00998333	     -0.18299041	     -0.00036775	     -0.00734326	      0.00231170	     -0.00012744	     -0.00032070	     -0.00012828	     -0.00064141	     -0.00041050	     -0.00123150	     -0.00069272	     -0.00001155	     -0.00022260	     -0.00026711	      0.00244570	      0.00858067	      0.00596916	     -0.00800034	      0.01931687	     -0.01832201	      0.00244570	      0.00858067	      0.00596916	      0.00053888	      0.01790749	     -0.00940972	      0.00388873	      0.00477160	      0.01582107	      0.00000000	      0.00744345	      0.00000000	     -0.00700547	     -0.03237441	     -0.00613551	      0.02042401	     -0.00088500	     -0.00937673	     -0.00087050	      0.01459129	     -0.00596916	      0.00240425	      0.02105788	     -0.01741006	     -0.00584480	      0.01264302	     -0.00534737	     -0.01218704	      0.02669542	     -0.02988726	     -0.02288179	      0.01413531	     -0.00717128	     -0.01517162	      0.03084067	     -0.03734872
      1.13333333	     -0.31613795	      0.13390112	     -0.13390112	      0.31613795	     -0.06401150	      0.51731847	      0.23253109	     -0.23253109	     -0.51731847	      0.06401150	    100.85908001	     74.84847077	     -1.76032303	    -32.24894084	     30.73540457	     58.78628493	      0.23505345	      0.23144908	      0.27377800	      0.11572454	     31.90467030	    -19.22316579	      5.35451824	     -5.04479519	     -5.43738185	     13.51402974	     13.48177211	    -15.55329222	    -14.87386823	      4.69388949	     12.86307238	     13.67399696	    -19.24273720	     -3.64638572	      9.04025190	     21.10607861	    -10.39374674	    -14.40781876	     -9.81075648	      5.01691375	      0.00091663	     -0.03112275	     -0.00486742	      0.01620581	     -0.01854942	     -0.00521715	      0.00320636	     -0.06770867	     -0.00478555	      0.00972608	     -0.18305416	     -0.00038689	     -0.00705434	      0.00219891	     -0.00008408	     -0.00028167	     -0.00011267	     -0.00056333	     -0.00036053	     -0.00108160	     -0.00060840	     -0.00001078	     -0.00023211	     -0.00027854	      0.00245337	      0.00860758	      0.00598788	     -0.00802543	      0.01937745	     -0.01837947	      0.00245337	      0.00860758	      0.00598788	      0.00054057	      0.01796365	     -0.00943923	      0.00389771	      0.00478657	      0.01584354	      0.00000000	      0.00749052	      0.00000000	     -0.00702745	     -0.03247595	     -0.00617461	      0.01984117	     -0.00083456	     -0.00862391	     -0.00087323	      0.01463705	     -0.00598788	      0.00241179	      0.02112392	     -0.01746466	     -0.00586314	      0.01268267	     -0.00536414	     -0.01222526	      0.02677914	     -0.02998100	     -0.02295355	      0.01417964	     -0.00719378	     -0.01521920	      0.03093739	     -0.03746585
